<?xml version="1.0" standalone="no"?>
<!DOCTYPE svg PUBLIC "-//W3C//DTD SVG 20010904//EN"
 "http://www.w3.org/TR/2001/REC-SVG-20010904/DTD/svg10.dtd">
<svg version="1.0" xmlns="http://www.w3.org/2000/svg"
 width="1024.000000pt" height="1024.000000pt" viewBox="0 0 1024.000000 1024.000000"
 preserveAspectRatio="xMidYMid meet">

<g transform="translate(0.000000,1024.000000) scale(0.100000,-0.100000)"
fill="#000000" stroke="none">
<path d="M2635 8995 c-253 -36 -469 -119 -685 -265 -406 -274 -661 -702 -710
-1191 -8 -83 -10 -795 -8 -2599 4 -2482 4 -2485 24 -2575 29 -123 78 -264 126
-359 205 -408 600 -696 1044 -761 98 -14 379 -15 2744 -13 l2635 3 90 22 c190
44 379 127 525 231 93 66 232 203 306 302 81 107 184 314 223 447 64 219 61
79 61 2778 0 2693 3 2571 -60 2796 -148 536 -547 952 -1077 1123 -237 76 4 70
-2713 72 -1929 2 -2454 -1 -2525 -11z m5035 -159 c123 -29 279 -84 374 -132
406 -205 692 -578 788 -1031 l23 -108 3 -2495 c2 -1805 0 -2521 -8 -2588 -41
-338 -226 -654 -504 -864 -82 -62 -258 -153 -363 -187 -161 -53 -26 -51 -2858
-51 -2317 0 -2633 2 -2711 15 -132 23 -212 50 -333 111 -349 174 -591 490
-677 884 -18 82 -19 183 -19 2625 0 2400 1 2545 18 2635 104 552 513 1001
1052 1155 197 56 67 53 2705 51 2299 -2 2439 -3 2510 -20z"/>
<path d="M4533 7665 c-184 -40 -343 -203 -382 -393 -7 -35 -11 -245 -11 -612
l0 -560 -314 0 -313 0 26 -127 26 -128 200 -3 200 -2 28 44 c16 25 67 81 113
126 67 62 107 91 178 125 50 25 97 45 104 45 8 0 12 133 14 528 3 494 4 529
22 565 24 49 67 92 120 120 41 22 43 22 571 22 414 0 538 -3 567 -13 21 -7 58
-33 82 -57 76 -73 76 -73 76 -657 0 -411 2 -508 13 -508 31 0 178 -82 248
-137 42 -34 100 -93 129 -132 l52 -70 477 -3 c468 -3 477 -3 517 -25 22 -12
56 -39 74 -59 67 -77 65 -54 65 -634 l0 -525 -24 -48 c-13 -26 -42 -63 -64
-82 -76 -65 -72 -65 -769 -65 -527 0 -634 -2 -657 -14 -59 -31 -56 8 -61 -715
-5 -664 -5 -666 -27 -707 -49 -91 -147 -144 -266 -144 l-60 0 19 -21 c33 -37
137 -107 191 -128 76 -30 143 -36 180 -18 70 36 156 148 196 254 22 57 22 67
25 646 l3 587 562 0 c469 0 572 3 621 15 175 46 304 164 367 335 l24 65 0 565
0 565 -23 65 c-62 172 -189 291 -359 335 -47 12 -154 15 -625 15 l-568 0 0
560 c0 367 -4 577 -11 612 -41 196 -195 353 -388 394 -94 20 -1076 19 -1168
-1z"/>
<path d="M3635 6961 c-22 -10 -51 -30 -64 -44 -13 -15 -47 -34 -75 -43 -175
-57 -273 -163 -307 -332 -36 -188 57 -734 181 -1054 32 -83 55 -158 59 -199 6
-47 18 -84 41 -125 116 -206 252 -351 425 -454 126 -75 178 -123 214 -200 l26
-55 5 -745 c5 -732 6 -746 27 -802 43 -114 115 -204 214 -268 106 -68 131 -73
423 -78 l259 -4 -22 34 c-21 31 -91 173 -104 211 -6 15 -22 17 -155 17 -215 0
-284 27 -350 138 l-27 47 -3 745 c-2 719 -2 747 17 810 25 79 59 123 159 199
153 116 281 272 372 450 54 105 60 153 30 215 -24 47 -104 145 -113 136 -2 -3
-28 -51 -57 -108 -121 -238 -270 -425 -402 -505 -135 -82 -244 -87 -383 -18
-134 66 -234 170 -336 348 -27 48 -61 96 -75 107 -32 23 -43 46 -92 191 -78
229 -139 509 -163 754 -18 185 6 267 99 338 58 44 100 51 155 24 51 -25 135
-28 175 -7 55 29 76 62 80 129 4 77 -19 119 -81 147 -53 25 -101 25 -152 1z"/>
<path d="M4615 6966 c-42 -18 -83 -69 -91 -112 -26 -138 110 -228 246 -164 58
27 96 23 164 -20 36 -23 53 -43 73 -86 34 -76 39 -152 18 -319 l-18 -139 44
-38 c59 -51 76 -55 105 -27 19 20 26 45 38 137 19 138 20 310 2 377 -40 150
-133 246 -285 296 -36 12 -79 34 -96 49 -63 58 -135 75 -200 46z"/>
<path d="M2941 6084 c-179 -48 -329 -203 -366 -381 -21 -99 -21 -1057 0 -1156
40 -189 189 -342 382 -392 47 -12 147 -15 560 -15 l503 0 0 130 0 130 -482 0
c-298 0 -497 4 -520 10 -68 19 -130 70 -163 134 l-30 60 0 520 c0 570 -2 551
60 624 46 54 107 84 187 90 65 4 69 6 64 26 -3 12 -14 69 -23 128 l-18 108
-50 -1 c-27 0 -74 -7 -104 -15z"/>
<path d="M4494 6086 c-248 -57 -419 -218 -495 -466 -29 -96 -31 -253 -5 -350
27 -99 94 -236 121 -248 43 -20 91 -24 136 -12 56 15 129 50 129 61 0 5 -20
40 -45 79 -74 113 -99 188 -99 300 -1 83 3 102 26 153 38 80 124 168 201 203
55 26 73 29 162 29 87 0 107 -3 157 -27 76 -35 133 -90 241 -230 49 -65 93
-118 96 -118 4 0 46 51 94 114 106 138 164 193 242 232 54 26 70 29 160 29 88
0 107 -3 158 -27 110 -52 182 -134 217 -246 64 -206 -40 -425 -319 -676 -42
-37 -144 -124 -228 -193 -236 -193 -332 -305 -397 -462 -50 -121 -51 -132 -51
-686 l1 -520 26 -96 c46 -169 133 -315 257 -431 121 -113 267 -190 426 -224
127 -27 324 -23 447 9 223 59 416 190 573 390 l30 38 43 -15 c106 -38 281 -40
392 -5 161 51 319 186 390 333 92 190 93 382 1 571 -192 399 -726 489 -1040
175 -74 -74 -121 -151 -157 -255 -25 -70 -28 -94 -28 -200 0 -103 4 -132 27
-201 27 -80 81 -174 131 -227 l27 -27 -30 -44 c-93 -134 -292 -261 -461 -293
-147 -27 -314 -6 -444 57 -156 75 -283 235 -333 420 -16 58 -18 119 -18 555 0
456 1 494 19 549 42 127 122 217 378 428 187 152 315 273 393 367 248 304 289
629 115 905 -137 217 -417 335 -670 282 -108 -23 -243 -92 -309 -160 l-55 -55
-65 58 c-81 71 -136 104 -232 137 -93 32 -244 41 -335 20z m2614 -2301 c304
-72 464 -402 328 -680 -44 -90 -95 -148 -170 -197 -91 -59 -177 -81 -292 -76
-51 2 -99 9 -105 15 -7 7 3 30 36 77 26 36 49 66 52 66 4 0 14 -7 24 -16 17
-15 25 -11 122 69 187 154 247 239 247 352 0 74 -22 119 -76 158 -76 54 -166
45 -235 -24 l-39 -39 -38 39 c-84 89 -220 74 -290 -32 -22 -34 -27 -51 -26
-101 2 -70 19 -114 69 -181 20 -26 34 -52 32 -58 -3 -7 -28 -45 -57 -85 -58
-82 -61 -83 -107 -5 -64 110 -82 270 -43 394 74 240 323 382 568 324z"/>
</g>
</svg>
